<mxfile host="app.diagrams.net" agent="Mozilla/5.0 (Windows NT 10.0; Win64; x64) AppleWebKit/537.36 (KHTML, like Gecko) Chrome/134.0.0.0 Safari/537.36 Edg/134.0.0.0" version="26.1.0">
  <diagram name="Page-1" id="aaaa8250-4180-3840-79b5-4cada1eebb92">
    <mxGraphModel dx="3072" dy="740" grid="1" gridSize="10" guides="1" tooltips="1" connect="1" arrows="1" fold="1" page="1" pageScale="1" pageWidth="850" pageHeight="1100" background="none" math="0" shadow="0">
      <root>
        <mxCell id="0" />
        <mxCell id="1" parent="0" />
        <mxCell id="L8nfCHtJE5OpTZyHgB6r-24" value="&lt;div&gt;&lt;b style=&quot;&quot;&gt;&lt;font style=&quot;font-size: 16px;&quot;&gt;Edge Layer&lt;/font&gt;&lt;/b&gt;&lt;/div&gt;" style="text;html=1;align=center;verticalAlign=middle;whiteSpace=wrap;rounded=0;" parent="1" vertex="1">
          <mxGeometry x="-1650" y="1110" width="120" height="30" as="geometry" />
        </mxCell>
        <mxCell id="L8nfCHtJE5OpTZyHgB6r-62" value="&lt;div&gt;&lt;b style=&quot;&quot;&gt;&lt;font style=&quot;font-size: 16px;&quot;&gt;Data Source&lt;/font&gt;&lt;/b&gt;&lt;/div&gt;&lt;div&gt;&lt;b style=&quot;&quot;&gt;&lt;font size=&quot;3&quot;&gt;Layer&lt;/font&gt;&lt;/b&gt;&lt;/div&gt;" style="text;html=1;align=center;verticalAlign=middle;whiteSpace=wrap;rounded=0;" parent="1" vertex="1">
          <mxGeometry x="-1650" y="1340" width="120" height="30" as="geometry" />
        </mxCell>
        <mxCell id="L8nfCHtJE5OpTZyHgB6r-92" value="&lt;font style=&quot;font-size: 16px;&quot;&gt;&lt;b style=&quot;&quot;&gt;Cloud Layer&lt;/b&gt;&lt;/font&gt;" style="text;html=1;align=center;verticalAlign=middle;whiteSpace=wrap;rounded=0;" parent="1" vertex="1">
          <mxGeometry x="-1650" y="1010" width="120" height="30" as="geometry" />
        </mxCell>
        <mxCell id="L8nfCHtJE5OpTZyHgB6r-93" value="" style="endArrow=none;dashed=1;html=1;dashPattern=1 3;strokeWidth=2;rounded=0;fontSize=12;startSize=8;endSize=8;curved=1;" parent="1" edge="1">
          <mxGeometry width="50" height="50" relative="1" as="geometry">
            <mxPoint x="-1650" y="1110" as="sourcePoint" />
            <mxPoint x="-940" y="1110" as="targetPoint" />
          </mxGeometry>
        </mxCell>
        <mxCell id="Cs1iZEAPSNi9UPlNlivx-41" value="" style="group" vertex="1" connectable="0" parent="1">
          <mxGeometry x="-1240" y="910" width="264" height="480.5" as="geometry" />
        </mxCell>
        <mxCell id="L8nfCHtJE5OpTZyHgB6r-26" style="edgeStyle=orthogonalEdgeStyle;rounded=0;orthogonalLoop=1;jettySize=auto;html=1;fontSize=12;startSize=8;endSize=8;strokeWidth=3;endArrow=none;startFill=0;entryX=0.5;entryY=0;entryDx=0;entryDy=0;" parent="Cs1iZEAPSNi9UPlNlivx-41" target="L8nfCHtJE5OpTZyHgB6r-123" edge="1">
          <mxGeometry relative="1" as="geometry">
            <mxPoint x="-196" y="300.5000000000002" as="targetPoint" />
            <Array as="points">
              <mxPoint x="30" y="220.5" />
              <mxPoint x="-126" y="220.5" />
            </Array>
            <mxPoint x="30" y="200.5" as="sourcePoint" />
          </mxGeometry>
        </mxCell>
        <mxCell id="L8nfCHtJE5OpTZyHgB6r-33" style="edgeStyle=none;curved=1;rounded=0;orthogonalLoop=1;jettySize=auto;html=1;entryX=0.5;entryY=0;entryDx=0;entryDy=0;fontSize=12;startSize=8;endSize=8;strokeWidth=3;endArrow=none;startFill=0;" parent="Cs1iZEAPSNi9UPlNlivx-41" target="L8nfCHtJE5OpTZyHgB6r-31" edge="1">
          <mxGeometry relative="1" as="geometry">
            <mxPoint x="29.999999999999545" y="216.94232005343883" as="sourcePoint" />
          </mxGeometry>
        </mxCell>
        <mxCell id="L8nfCHtJE5OpTZyHgB6r-30" value="&lt;b&gt;Agent 1&lt;/b&gt;" style="text;html=1;align=center;verticalAlign=middle;whiteSpace=wrap;rounded=0;fontSize=16;" parent="Cs1iZEAPSNi9UPlNlivx-41" vertex="1">
          <mxGeometry x="-126" y="250.5" width="70" height="30" as="geometry" />
        </mxCell>
        <mxCell id="L8nfCHtJE5OpTZyHgB6r-31" value="" style="shape=image;verticalLabelPosition=bottom;labelBackgroundColor=default;verticalAlign=top;aspect=fixed;imageAspect=0;image=data:image/png,iVBORw0KGgoAAAANSUhEUgAAAGQAAABkCAYAAABw4pVUAAAAAXNSR0IArs4c6QAABglJREFUeAHtnT2OJEUQhUMg4SFhYKwEJj8SHnsVjoDHOTCwsBAHwMDgZwUIiRtwAgTcABAgfgzAAjal/Xa7q7OyXnVGRkX1VEuj11UV9eJ7Gd09s9UzvWbjb8+Y2Vtm9rWZ/W5m/+3s628z+87M3jGz58cv19gOr5rZtzsbQOsB87OZ3R+7ZOPcXzGzX25oGAyqZHpp3LKNcX7WzL65wWEwlO/N7LkxS+fv+tTDp/UXlWF8YGYv+Lcb7njv4feO9yp5vjKzp4d3d2jwdgX+fQffrS0+rOR6d2uopf5vmNm/FXCe6reoby4tylbHXzOzv+7YMMoD7B8zKz9Nprt9eQeHwTP+o3TTMLOf7vBASvZ0Nx4taDpAZyByos72/XaAof2OuR3IiaajBQxNB+gMRE7U2b7fDjC03zG3AznRdLSAoekAnYHIiTrb99sBhvY75nYgJ5qOFjA0HaAzEDlRZ/t+O8DQfsfcDuRE09EChrYAy5s85Yrwjwn/MVmYCtvSG1HkRFt5NzkGGDoHUYLu4ZpXYWwNhZzoXN7N9gOGzoHU3ivhnGz6+VyIyjO7UbrNoelizlHs6ZpX6xqVmnduHYbvVwHVuuHAMw1UPrVups343SqgWjeeuN5B5VPr6l0C9qqAal0AcrWFyqfWVZtE7FQB1boI5loPlU+tq/UI2acCqnUh0JUmKp9aV2kRs0sFVOtiqC+7qHxq3WWHoD0qoFoXhH3RRuVT6y4aRO1QAdW6KO5pH5VPrZv6h22rgGpdGPikkcqn1k3s4zZVQLUujvy8k8qn1p27B26pgHv6G5HfGuun5m1YjD2kApYLdtParNufNZZsytwo3eaQCngMJGg+6kCOl6xkA1EHF4R90UblU+suGkTtUAHVuijuaR+VT62b+odtq4BqXRj4pJHKp9ZN7OM2VUC1Lo78vJPKp9aduwduqYBqXSD6WSuVT607M4/cUAHVukj2014qn1p36h16XwVU60LhT5qpfGrdiXXsXRVQrYulf9JN5VPrnjgH31MB1bpg/MftVD617rFx9B0VUK2L5qefyqfW4RuuKmDG3+edsrP9Q2MVqUEbpdscAgydozh+lXRuZZz3Mwh0zn5Pv2z9+lyIylsIjdJtDjEItEVRhlIuw2d8+SpMha01jJKNnGgr7ybHAEM3gQhsSk40sLXWCjBUO2u/VeRE0yUBDE0H6AxETtTZvt8OMLTfMbcDOdF0tICh6QCdgciJOtv32wGG9jvmdiAnmo4WMDQdoDMQOVFn+347wNB+x9wO5ETT0QKGpgN0BiIn6mzfbwcY2u+Y24GcaDpawNB0gM5A5ESd7fvtAEP7HXM7kBNNRwsYmg7QGYicqLN9vx1gaL9jbgdyouloAUMjAF80s4/N7M9HXw/MrPyvDBE3cqIRPVf1AAxddfIVxWUYv1belyj7yrHRN3Kio/ut9gcMXW2w8oTyzKDXVCM+aXracyX++PJowPIyNe3J9h/j4170Dmi5rgWLga47e311ayDlj4JG38iJju632h8wdLXByhM+bTxDPlnpdU05OdFrPIaeAxg6tNmjn6bmvqm/PLp55cEQ0HJdCwaBrjv7uury01T5Bl6+Z5Sv8syIGEahJSd6XYKBZwGGDmyVwpqcaAqoUwjA0NNjt3ifnGi6jICh6QCdgciJOtv32wGG9jvmdiAnmo4WMDQdoDMQOVFn+347wNB+x9wO5ETT0QKGRgAeV3sbq8wg0Eapy6Hjau/CMjIIdKG8+/BxtXdhCRkEulDefbh1cfG42rvBpYTWQI6rvRsM5Ljau/Aiw0sVulDefbi8d35c7W0sI4NAG6Vuh46rvY2lZBBoo/QmDpETTRcKMDQdoDMQOVFn+347wNB+x9wO5ETT0QKGpgN0BiIn6mzfbwcY2u+Y24GcaDpawNB0gM5A5ESd7fvtAEP7HXM7kBNNRwsYmg7QGYicqLN9vx1gaL9jbgdyouloAUPTAToDkRN1tu+3y/hRSyzWaG198lz/yl7psKdPivMeUPl8rXS3vXxSnPcwyn/zvfRhZ5sNK/MnxXkPQv3kuVXD+B/Pyocw4ZPfAgAAAABJRU5ErkJggg==;" parent="Cs1iZEAPSNi9UPlNlivx-41" vertex="1">
          <mxGeometry x="-20" y="280.5" width="100" height="100" as="geometry" />
        </mxCell>
        <mxCell id="L8nfCHtJE5OpTZyHgB6r-34" value="" style="shape=image;verticalLabelPosition=bottom;labelBackgroundColor=default;verticalAlign=top;aspect=fixed;imageAspect=0;image=data:image/png,iVBORw0KGgoAAAANSUhEUgAAAGQAAABkCAYAAABw4pVUAAAAAXNSR0IArs4c6QAABglJREFUeAHtnT2OJEUQhUMg4SFhYKwEJj8SHnsVjoDHOTCwsBAHwMDgZwUIiRtwAgTcABAgfgzAAjal/Xa7q7OyXnVGRkX1VEuj11UV9eJ7Gd09s9UzvWbjb8+Y2Vtm9rWZ/W5m/+3s628z+87M3jGz58cv19gOr5rZtzsbQOsB87OZ3R+7ZOPcXzGzX25oGAyqZHpp3LKNcX7WzL65wWEwlO/N7LkxS+fv+tTDp/UXlWF8YGYv+Lcb7njv4feO9yp5vjKzp4d3d2jwdgX+fQffrS0+rOR6d2uopf5vmNm/FXCe6reoby4tylbHXzOzv+7YMMoD7B8zKz9Nprt9eQeHwTP+o3TTMLOf7vBASvZ0Nx4taDpAZyByos72/XaAof2OuR3IiaajBQxNB+gMRE7U2b7fDjC03zG3AznRdLSAoekAnYHIiTrb99sBhvY75nYgJ5qOFjA0HaAzEDlRZ/t+O8DQfsfcDuRE09EChrYAy5s85Yrwjwn/MVmYCtvSG1HkRFt5NzkGGDoHUYLu4ZpXYWwNhZzoXN7N9gOGzoHU3ivhnGz6+VyIyjO7UbrNoelizlHs6ZpX6xqVmnduHYbvVwHVuuHAMw1UPrVups343SqgWjeeuN5B5VPr6l0C9qqAal0AcrWFyqfWVZtE7FQB1boI5loPlU+tq/UI2acCqnUh0JUmKp9aV2kRs0sFVOtiqC+7qHxq3WWHoD0qoFoXhH3RRuVT6y4aRO1QAdW6KO5pH5VPrZv6h22rgGpdGPikkcqn1k3s4zZVQLUujvy8k8qn1p27B26pgHv6G5HfGuun5m1YjD2kApYLdtParNufNZZsytwo3eaQCngMJGg+6kCOl6xkA1EHF4R90UblU+suGkTtUAHVuijuaR+VT62b+odtq4BqXRj4pJHKp9ZN7OM2VUC1Lo78vJPKp9aduwduqYBqXSD6WSuVT607M4/cUAHVukj2014qn1p36h16XwVU60LhT5qpfGrdiXXsXRVQrYulf9JN5VPrnjgH31MB1bpg/MftVD617rFx9B0VUK2L5qefyqfW4RuuKmDG3+edsrP9Q2MVqUEbpdscAgydozh+lXRuZZz3Mwh0zn5Pv2z9+lyIylsIjdJtDjEItEVRhlIuw2d8+SpMha01jJKNnGgr7ybHAEM3gQhsSk40sLXWCjBUO2u/VeRE0yUBDE0H6AxETtTZvt8OMLTfMbcDOdF0tICh6QCdgciJOtv32wGG9jvmdiAnmo4WMDQdoDMQOVFn+347wNB+x9wO5ETT0QKGpgN0BiIn6mzfbwcY2u+Y24GcaDpawNB0gM5A5ESd7fvtAEP7HXM7kBNNRwsYmg7QGYicqLN9vx1gaL9jbgdyouloAUMjAF80s4/N7M9HXw/MrPyvDBE3cqIRPVf1AAxddfIVxWUYv1belyj7yrHRN3Kio/ut9gcMXW2w8oTyzKDXVCM+aXracyX++PJowPIyNe3J9h/j4170Dmi5rgWLga47e311ayDlj4JG38iJju632h8wdLXByhM+bTxDPlnpdU05OdFrPIaeAxg6tNmjn6bmvqm/PLp55cEQ0HJdCwaBrjv7uury01T5Bl6+Z5Sv8syIGEahJSd6XYKBZwGGDmyVwpqcaAqoUwjA0NNjt3ifnGi6jICh6QCdgciJOtv32wGG9jvmdiAnmo4WMDQdoDMQOVFn+347wNB+x9wO5ETT0QKGRgAeV3sbq8wg0Eapy6Hjau/CMjIIdKG8+/BxtXdhCRkEulDefbh1cfG42rvBpYTWQI6rvRsM5Ljau/Aiw0sVulDefbi8d35c7W0sI4NAG6Vuh46rvY2lZBBoo/QmDpETTRcKMDQdoDMQOVFn+347wNB+x9wO5ETT0QKGpgN0BiIn6mzfbwcY2u+Y24GcaDpawNB0gM5A5ESd7fvtAEP7HXM7kBNNRwsYmg7QGYicqLN9vx1gaL9jbgdyouloAUPTAToDkRN1tu+3y/hRSyzWaG198lz/yl7psKdPivMeUPl8rXS3vXxSnPcwyn/zvfRhZ5sNK/MnxXkPQv3kuVXD+B/Pyocw4ZPfAgAAAABJRU5ErkJggg==;" parent="Cs1iZEAPSNi9UPlNlivx-41" vertex="1">
          <mxGeometry x="129" y="280.5" width="100" height="100" as="geometry" />
        </mxCell>
        <mxCell id="L8nfCHtJE5OpTZyHgB6r-35" value="&lt;b&gt;&lt;font style=&quot;font-size: 16px;&quot;&gt;Agent 3&lt;/font&gt;&lt;/b&gt;" style="text;html=1;align=center;verticalAlign=middle;whiteSpace=wrap;rounded=0;" parent="Cs1iZEAPSNi9UPlNlivx-41" vertex="1">
          <mxGeometry x="179" y="250.5" width="65" height="30" as="geometry" />
        </mxCell>
        <mxCell id="L8nfCHtJE5OpTZyHgB6r-98" style="edgeStyle=orthogonalEdgeStyle;rounded=0;orthogonalLoop=1;jettySize=auto;html=1;fontSize=12;startSize=8;endSize=8;strokeWidth=3;endArrow=none;startFill=0;" parent="Cs1iZEAPSNi9UPlNlivx-41" edge="1">
          <mxGeometry relative="1" as="geometry">
            <Array as="points">
              <mxPoint x="30" y="220.5" />
              <mxPoint x="179" y="220.5" />
            </Array>
            <mxPoint x="30" y="210.5" as="sourcePoint" />
            <mxPoint x="179" y="280.5" as="targetPoint" />
          </mxGeometry>
        </mxCell>
        <mxCell id="L8nfCHtJE5OpTZyHgB6r-101" style="edgeStyle=none;curved=1;rounded=0;orthogonalLoop=1;jettySize=auto;html=1;fontSize=12;startSize=8;endSize=8;exitX=0.5;exitY=1;exitDx=0;exitDy=0;" parent="Cs1iZEAPSNi9UPlNlivx-41" source="L8nfCHtJE5OpTZyHgB6r-123" target="L8nfCHtJE5OpTZyHgB6r-112" edge="1">
          <mxGeometry relative="1" as="geometry">
            <mxPoint x="-196" y="440.5" as="sourcePoint" />
          </mxGeometry>
        </mxCell>
        <mxCell id="L8nfCHtJE5OpTZyHgB6r-102" style="edgeStyle=none;curved=1;rounded=0;orthogonalLoop=1;jettySize=auto;html=1;fontSize=12;startSize=8;endSize=8;exitX=0.5;exitY=1;exitDx=0;exitDy=0;" parent="Cs1iZEAPSNi9UPlNlivx-41" source="L8nfCHtJE5OpTZyHgB6r-123" target="L8nfCHtJE5OpTZyHgB6r-113" edge="1">
          <mxGeometry relative="1" as="geometry">
            <mxPoint x="-126" y="500.5" as="sourcePoint" />
          </mxGeometry>
        </mxCell>
        <mxCell id="Cs1iZEAPSNi9UPlNlivx-27" style="rounded=0;orthogonalLoop=1;jettySize=auto;html=1;exitX=0.5;exitY=1;exitDx=0;exitDy=0;" edge="1" parent="Cs1iZEAPSNi9UPlNlivx-41" source="L8nfCHtJE5OpTZyHgB6r-106" target="Cs1iZEAPSNi9UPlNlivx-23">
          <mxGeometry relative="1" as="geometry" />
        </mxCell>
        <mxCell id="Cs1iZEAPSNi9UPlNlivx-28" style="rounded=0;orthogonalLoop=1;jettySize=auto;html=1;exitX=0.5;exitY=1;exitDx=0;exitDy=0;" edge="1" parent="Cs1iZEAPSNi9UPlNlivx-41" source="L8nfCHtJE5OpTZyHgB6r-106" target="Cs1iZEAPSNi9UPlNlivx-24">
          <mxGeometry relative="1" as="geometry" />
        </mxCell>
        <mxCell id="L8nfCHtJE5OpTZyHgB6r-106" value="" style="shape=image;verticalLabelPosition=bottom;labelBackgroundColor=default;verticalAlign=top;aspect=fixed;imageAspect=0;image=data:image/png,iVBORw0KGgoAAAANSUhEUgAAAGQAAABkCAYAAABw4pVUAAAAAXNSR0IArs4c6QAABglJREFUeAHtnT2OJEUQhUMg4SFhYKwEJj8SHnsVjoDHOTCwsBAHwMDgZwUIiRtwAgTcABAgfgzAAjal/Xa7q7OyXnVGRkX1VEuj11UV9eJ7Gd09s9UzvWbjb8+Y2Vtm9rWZ/W5m/+3s628z+87M3jGz58cv19gOr5rZtzsbQOsB87OZ3R+7ZOPcXzGzX25oGAyqZHpp3LKNcX7WzL65wWEwlO/N7LkxS+fv+tTDp/UXlWF8YGYv+Lcb7njv4feO9yp5vjKzp4d3d2jwdgX+fQffrS0+rOR6d2uopf5vmNm/FXCe6reoby4tylbHXzOzv+7YMMoD7B8zKz9Nprt9eQeHwTP+o3TTMLOf7vBASvZ0Nx4taDpAZyByos72/XaAof2OuR3IiaajBQxNB+gMRE7U2b7fDjC03zG3AznRdLSAoekAnYHIiTrb99sBhvY75nYgJ5qOFjA0HaAzEDlRZ/t+O8DQfsfcDuRE09EChrYAy5s85Yrwjwn/MVmYCtvSG1HkRFt5NzkGGDoHUYLu4ZpXYWwNhZzoXN7N9gOGzoHU3ivhnGz6+VyIyjO7UbrNoelizlHs6ZpX6xqVmnduHYbvVwHVuuHAMw1UPrVups343SqgWjeeuN5B5VPr6l0C9qqAal0AcrWFyqfWVZtE7FQB1boI5loPlU+tq/UI2acCqnUh0JUmKp9aV2kRs0sFVOtiqC+7qHxq3WWHoD0qoFoXhH3RRuVT6y4aRO1QAdW6KO5pH5VPrZv6h22rgGpdGPikkcqn1k3s4zZVQLUujvy8k8qn1p27B26pgHv6G5HfGuun5m1YjD2kApYLdtParNufNZZsytwo3eaQCngMJGg+6kCOl6xkA1EHF4R90UblU+suGkTtUAHVuijuaR+VT62b+odtq4BqXRj4pJHKp9ZN7OM2VUC1Lo78vJPKp9aduwduqYBqXSD6WSuVT607M4/cUAHVukj2014qn1p36h16XwVU60LhT5qpfGrdiXXsXRVQrYulf9JN5VPrnjgH31MB1bpg/MftVD617rFx9B0VUK2L5qefyqfW4RuuKmDG3+edsrP9Q2MVqUEbpdscAgydozh+lXRuZZz3Mwh0zn5Pv2z9+lyIylsIjdJtDjEItEVRhlIuw2d8+SpMha01jJKNnGgr7ybHAEM3gQhsSk40sLXWCjBUO2u/VeRE0yUBDE0H6AxETtTZvt8OMLTfMbcDOdF0tICh6QCdgciJOtv32wGG9jvmdiAnmo4WMDQdoDMQOVFn+347wNB+x9wO5ETT0QKGpgN0BiIn6mzfbwcY2u+Y24GcaDpawNB0gM5A5ESd7fvtAEP7HXM7kBNNRwsYmg7QGYicqLN9vx1gaL9jbgdyouloAUMjAF80s4/N7M9HXw/MrPyvDBE3cqIRPVf1AAxddfIVxWUYv1belyj7yrHRN3Kio/ut9gcMXW2w8oTyzKDXVCM+aXracyX++PJowPIyNe3J9h/j4170Dmi5rgWLga47e311ayDlj4JG38iJju632h8wdLXByhM+bTxDPlnpdU05OdFrPIaeAxg6tNmjn6bmvqm/PLp55cEQ0HJdCwaBrjv7uury01T5Bl6+Z5Sv8syIGEahJSd6XYKBZwGGDmyVwpqcaAqoUwjA0NNjt3ifnGi6jICh6QCdgciJOtv32wGG9jvmdiAnmo4WMDQdoDMQOVFn+347wNB+x9wO5ETT0QKGRgAeV3sbq8wg0Eapy6Hjau/CMjIIdKG8+/BxtXdhCRkEulDefbh1cfG42rvBpYTWQI6rvRsM5Ljau/Aiw0sVulDefbi8d35c7W0sI4NAG6Vuh46rvY2lZBBoo/QmDpETTRcKMDQdoDMQOVFn+347wNB+x9wO5ETT0QKGpgN0BiIn6mzfbwcY2u+Y24GcaDpawNB0gM5A5ESd7fvtAEP7HXM7kBNNRwsYmg7QGYicqLN9vx1gaL9jbgdyouloAUPTAToDkRN1tu+3y/hRSyzWaG198lz/yl7psKdPivMeUPl8rXS3vXxSnPcwyn/zvfRhZ5sNK/MnxXkPQv3kuVXD+B/Pyocw4ZPfAgAAAABJRU5ErkJggg==;" parent="Cs1iZEAPSNi9UPlNlivx-41" vertex="1">
          <mxGeometry x="-20" y="280.5" width="100" height="100" as="geometry" />
        </mxCell>
        <mxCell id="L8nfCHtJE5OpTZyHgB6r-107" value="&lt;b&gt;&lt;font style=&quot;font-size: 16px;&quot;&gt;Agent 2&lt;/font&gt;&lt;/b&gt;" style="text;html=1;align=center;verticalAlign=middle;whiteSpace=wrap;rounded=0;" parent="Cs1iZEAPSNi9UPlNlivx-41" vertex="1">
          <mxGeometry x="29" y="250.5" width="65" height="30" as="geometry" />
        </mxCell>
        <mxCell id="Cs1iZEAPSNi9UPlNlivx-29" style="rounded=0;orthogonalLoop=1;jettySize=auto;html=1;exitX=0.5;exitY=1;exitDx=0;exitDy=0;" edge="1" parent="Cs1iZEAPSNi9UPlNlivx-41" source="L8nfCHtJE5OpTZyHgB6r-110" target="Cs1iZEAPSNi9UPlNlivx-25">
          <mxGeometry relative="1" as="geometry" />
        </mxCell>
        <mxCell id="Cs1iZEAPSNi9UPlNlivx-30" style="rounded=0;orthogonalLoop=1;jettySize=auto;html=1;exitX=0.5;exitY=1;exitDx=0;exitDy=0;" edge="1" parent="Cs1iZEAPSNi9UPlNlivx-41" source="L8nfCHtJE5OpTZyHgB6r-110" target="Cs1iZEAPSNi9UPlNlivx-26">
          <mxGeometry relative="1" as="geometry" />
        </mxCell>
        <mxCell id="L8nfCHtJE5OpTZyHgB6r-110" value="" style="shape=image;verticalLabelPosition=bottom;labelBackgroundColor=default;verticalAlign=top;aspect=fixed;imageAspect=0;image=data:image/png,iVBORw0KGgoAAAANSUhEUgAAAGQAAABkCAYAAABw4pVUAAAAAXNSR0IArs4c6QAABglJREFUeAHtnT2OJEUQhUMg4SFhYKwEJj8SHnsVjoDHOTCwsBAHwMDgZwUIiRtwAgTcABAgfgzAAjal/Xa7q7OyXnVGRkX1VEuj11UV9eJ7Gd09s9UzvWbjb8+Y2Vtm9rWZ/W5m/+3s628z+87M3jGz58cv19gOr5rZtzsbQOsB87OZ3R+7ZOPcXzGzX25oGAyqZHpp3LKNcX7WzL65wWEwlO/N7LkxS+fv+tTDp/UXlWF8YGYv+Lcb7njv4feO9yp5vjKzp4d3d2jwdgX+fQffrS0+rOR6d2uopf5vmNm/FXCe6reoby4tylbHXzOzv+7YMMoD7B8zKz9Nprt9eQeHwTP+o3TTMLOf7vBASvZ0Nx4taDpAZyByos72/XaAof2OuR3IiaajBQxNB+gMRE7U2b7fDjC03zG3AznRdLSAoekAnYHIiTrb99sBhvY75nYgJ5qOFjA0HaAzEDlRZ/t+O8DQfsfcDuRE09EChrYAy5s85Yrwjwn/MVmYCtvSG1HkRFt5NzkGGDoHUYLu4ZpXYWwNhZzoXN7N9gOGzoHU3ivhnGz6+VyIyjO7UbrNoelizlHs6ZpX6xqVmnduHYbvVwHVuuHAMw1UPrVups343SqgWjeeuN5B5VPr6l0C9qqAal0AcrWFyqfWVZtE7FQB1boI5loPlU+tq/UI2acCqnUh0JUmKp9aV2kRs0sFVOtiqC+7qHxq3WWHoD0qoFoXhH3RRuVT6y4aRO1QAdW6KO5pH5VPrZv6h22rgGpdGPikkcqn1k3s4zZVQLUujvy8k8qn1p27B26pgHv6G5HfGuun5m1YjD2kApYLdtParNufNZZsytwo3eaQCngMJGg+6kCOl6xkA1EHF4R90UblU+suGkTtUAHVuijuaR+VT62b+odtq4BqXRj4pJHKp9ZN7OM2VUC1Lo78vJPKp9aduwduqYBqXSD6WSuVT607M4/cUAHVukj2014qn1p36h16XwVU60LhT5qpfGrdiXXsXRVQrYulf9JN5VPrnjgH31MB1bpg/MftVD617rFx9B0VUK2L5qefyqfW4RuuKmDG3+edsrP9Q2MVqUEbpdscAgydozh+lXRuZZz3Mwh0zn5Pv2z9+lyIylsIjdJtDjEItEVRhlIuw2d8+SpMha01jJKNnGgr7ybHAEM3gQhsSk40sLXWCjBUO2u/VeRE0yUBDE0H6AxETtTZvt8OMLTfMbcDOdF0tICh6QCdgciJOtv32wGG9jvmdiAnmo4WMDQdoDMQOVFn+347wNB+x9wO5ETT0QKGpgN0BiIn6mzfbwcY2u+Y24GcaDpawNB0gM5A5ESd7fvtAEP7HXM7kBNNRwsYmg7QGYicqLN9vx1gaL9jbgdyouloAUMjAF80s4/N7M9HXw/MrPyvDBE3cqIRPVf1AAxddfIVxWUYv1belyj7yrHRN3Kio/ut9gcMXW2w8oTyzKDXVCM+aXracyX++PJowPIyNe3J9h/j4170Dmi5rgWLga47e311ayDlj4JG38iJju632h8wdLXByhM+bTxDPlnpdU05OdFrPIaeAxg6tNmjn6bmvqm/PLp55cEQ0HJdCwaBrjv7uury01T5Bl6+Z5Sv8syIGEahJSd6XYKBZwGGDmyVwpqcaAqoUwjA0NNjt3ifnGi6jICh6QCdgciJOtv32wGG9jvmdiAnmo4WMDQdoDMQOVFn+347wNB+x9wO5ETT0QKGRgAeV3sbq8wg0Eapy6Hjau/CMjIIdKG8+/BxtXdhCRkEulDefbh1cfG42rvBpYTWQI6rvRsM5Ljau/Aiw0sVulDefbi8d35c7W0sI4NAG6Vuh46rvY2lZBBoo/QmDpETTRcKMDQdoDMQOVFn+347wNB+x9wO5ETT0QKGpgN0BiIn6mzfbwcY2u+Y24GcaDpawNB0gM5A5ESd7fvtAEP7HXM7kBNNRwsYmg7QGYicqLN9vx1gaL9jbgdyouloAUPTAToDkRN1tu+3y/hRSyzWaG198lz/yl7psKdPivMeUPl8rXS3vXxSnPcwyn/zvfRhZ5sNK/MnxXkPQv3kuVXD+B/Pyocw4ZPfAgAAAABJRU5ErkJggg==;" parent="Cs1iZEAPSNi9UPlNlivx-41" vertex="1">
          <mxGeometry x="129" y="280.5" width="100" height="100" as="geometry" />
        </mxCell>
        <mxCell id="L8nfCHtJE5OpTZyHgB6r-112" value="" style="sketch=0;outlineConnect=0;fontColor=#232F3E;gradientColor=none;fillColor=#232F3D;strokeColor=none;dashed=0;verticalLabelPosition=bottom;verticalAlign=top;align=center;html=1;fontSize=12;fontStyle=0;aspect=fixed;pointerEvents=1;shape=mxgraph.aws4.users;" parent="Cs1iZEAPSNi9UPlNlivx-41" vertex="1">
          <mxGeometry x="-186" y="426.5" width="50" height="50" as="geometry" />
        </mxCell>
        <mxCell id="L8nfCHtJE5OpTZyHgB6r-113" value="" style="fontColor=#0066CC;verticalAlign=top;verticalLabelPosition=bottom;labelPosition=center;align=center;html=1;outlineConnect=0;fillColor=#CCCCCC;strokeColor=#6881B3;gradientColor=none;gradientDirection=north;strokeWidth=2;shape=mxgraph.networks.security_camera;" parent="Cs1iZEAPSNi9UPlNlivx-41" vertex="1">
          <mxGeometry x="-126" y="426.5" width="70" height="54" as="geometry" />
        </mxCell>
        <mxCell id="L8nfCHtJE5OpTZyHgB6r-123" value="" style="shape=image;verticalLabelPosition=bottom;labelBackgroundColor=default;verticalAlign=top;aspect=fixed;imageAspect=0;image=data:image/png,iVBORw0KGgoAAAANSUhEUgAAAGQAAABkCAYAAABw4pVUAAAAAXNSR0IArs4c6QAABglJREFUeAHtnT2OJEUQhUMg4SFhYKwEJj8SHnsVjoDHOTCwsBAHwMDgZwUIiRtwAgTcABAgfgzAAjal/Xa7q7OyXnVGRkX1VEuj11UV9eJ7Gd09s9UzvWbjb8+Y2Vtm9rWZ/W5m/+3s628z+87M3jGz58cv19gOr5rZtzsbQOsB87OZ3R+7ZOPcXzGzX25oGAyqZHpp3LKNcX7WzL65wWEwlO/N7LkxS+fv+tTDp/UXlWF8YGYv+Lcb7njv4feO9yp5vjKzp4d3d2jwdgX+fQffrS0+rOR6d2uopf5vmNm/FXCe6reoby4tylbHXzOzv+7YMMoD7B8zKz9Nprt9eQeHwTP+o3TTMLOf7vBASvZ0Nx4taDpAZyByos72/XaAof2OuR3IiaajBQxNB+gMRE7U2b7fDjC03zG3AznRdLSAoekAnYHIiTrb99sBhvY75nYgJ5qOFjA0HaAzEDlRZ/t+O8DQfsfcDuRE09EChrYAy5s85Yrwjwn/MVmYCtvSG1HkRFt5NzkGGDoHUYLu4ZpXYWwNhZzoXN7N9gOGzoHU3ivhnGz6+VyIyjO7UbrNoelizlHs6ZpX6xqVmnduHYbvVwHVuuHAMw1UPrVups343SqgWjeeuN5B5VPr6l0C9qqAal0AcrWFyqfWVZtE7FQB1boI5loPlU+tq/UI2acCqnUh0JUmKp9aV2kRs0sFVOtiqC+7qHxq3WWHoD0qoFoXhH3RRuVT6y4aRO1QAdW6KO5pH5VPrZv6h22rgGpdGPikkcqn1k3s4zZVQLUujvy8k8qn1p27B26pgHv6G5HfGuun5m1YjD2kApYLdtParNufNZZsytwo3eaQCngMJGg+6kCOl6xkA1EHF4R90UblU+suGkTtUAHVuijuaR+VT62b+odtq4BqXRj4pJHKp9ZN7OM2VUC1Lo78vJPKp9aduwduqYBqXSD6WSuVT607M4/cUAHVukj2014qn1p36h16XwVU60LhT5qpfGrdiXXsXRVQrYulf9JN5VPrnjgH31MB1bpg/MftVD617rFx9B0VUK2L5qefyqfW4RuuKmDG3+edsrP9Q2MVqUEbpdscAgydozh+lXRuZZz3Mwh0zn5Pv2z9+lyIylsIjdJtDjEItEVRhlIuw2d8+SpMha01jJKNnGgr7ybHAEM3gQhsSk40sLXWCjBUO2u/VeRE0yUBDE0H6AxETtTZvt8OMLTfMbcDOdF0tICh6QCdgciJOtv32wGG9jvmdiAnmo4WMDQdoDMQOVFn+347wNB+x9wO5ETT0QKGpgN0BiIn6mzfbwcY2u+Y24GcaDpawNB0gM5A5ESd7fvtAEP7HXM7kBNNRwsYmg7QGYicqLN9vx1gaL9jbgdyouloAUMjAF80s4/N7M9HXw/MrPyvDBE3cqIRPVf1AAxddfIVxWUYv1belyj7yrHRN3Kio/ut9gcMXW2w8oTyzKDXVCM+aXracyX++PJowPIyNe3J9h/j4170Dmi5rgWLga47e311ayDlj4JG38iJju632h8wdLXByhM+bTxDPlnpdU05OdFrPIaeAxg6tNmjn6bmvqm/PLp55cEQ0HJdCwaBrjv7uury01T5Bl6+Z5Sv8syIGEahJSd6XYKBZwGGDmyVwpqcaAqoUwjA0NNjt3ifnGi6jICh6QCdgciJOtv32wGG9jvmdiAnmo4WMDQdoDMQOVFn+347wNB+x9wO5ETT0QKGRgAeV3sbq8wg0Eapy6Hjau/CMjIIdKG8+/BxtXdhCRkEulDefbh1cfG42rvBpYTWQI6rvRsM5Ljau/Aiw0sVulDefbi8d35c7W0sI4NAG6Vuh46rvY2lZBBoo/QmDpETTRcKMDQdoDMQOVFn+347wNB+x9wO5ETT0QKGpgN0BiIn6mzfbwcY2u+Y24GcaDpawNB0gM5A5ESd7fvtAEP7HXM7kBNNRwsYmg7QGYicqLN9vx1gaL9jbgdyouloAUPTAToDkRN1tu+3y/hRSyzWaG198lz/yl7psKdPivMeUPl8rXS3vXxSnPcwyn/zvfRhZ5sNK/MnxXkPQv3kuVXD+B/Pyocw4ZPfAgAAAABJRU5ErkJggg==;" parent="Cs1iZEAPSNi9UPlNlivx-41" vertex="1">
          <mxGeometry x="-176" y="280.5" width="100" height="100" as="geometry" />
        </mxCell>
        <mxCell id="Cs1iZEAPSNi9UPlNlivx-23" value="" style="sketch=0;outlineConnect=0;fontColor=#232F3E;gradientColor=none;fillColor=#232F3D;strokeColor=none;dashed=0;verticalLabelPosition=bottom;verticalAlign=top;align=center;html=1;fontSize=12;fontStyle=0;aspect=fixed;pointerEvents=1;shape=mxgraph.aws4.users;" vertex="1" parent="Cs1iZEAPSNi9UPlNlivx-41">
          <mxGeometry x="-26" y="426.5" width="50" height="50" as="geometry" />
        </mxCell>
        <mxCell id="Cs1iZEAPSNi9UPlNlivx-24" value="" style="fontColor=#0066CC;verticalAlign=top;verticalLabelPosition=bottom;labelPosition=center;align=center;html=1;outlineConnect=0;fillColor=#CCCCCC;strokeColor=#6881B3;gradientColor=none;gradientDirection=north;strokeWidth=2;shape=mxgraph.networks.security_camera;" vertex="1" parent="Cs1iZEAPSNi9UPlNlivx-41">
          <mxGeometry x="34" y="426.5" width="70" height="54" as="geometry" />
        </mxCell>
        <mxCell id="Cs1iZEAPSNi9UPlNlivx-25" value="" style="sketch=0;outlineConnect=0;fontColor=#232F3E;gradientColor=none;fillColor=#232F3D;strokeColor=none;dashed=0;verticalLabelPosition=bottom;verticalAlign=top;align=center;html=1;fontSize=12;fontStyle=0;aspect=fixed;pointerEvents=1;shape=mxgraph.aws4.users;" vertex="1" parent="Cs1iZEAPSNi9UPlNlivx-41">
          <mxGeometry x="119" y="426.5" width="50" height="50" as="geometry" />
        </mxCell>
        <mxCell id="Cs1iZEAPSNi9UPlNlivx-26" value="" style="fontColor=#0066CC;verticalAlign=top;verticalLabelPosition=bottom;labelPosition=center;align=center;html=1;outlineConnect=0;fillColor=#CCCCCC;strokeColor=#6881B3;gradientColor=none;gradientDirection=north;strokeWidth=2;shape=mxgraph.networks.security_camera;" vertex="1" parent="Cs1iZEAPSNi9UPlNlivx-41">
          <mxGeometry x="179" y="426.5" width="70" height="54" as="geometry" />
        </mxCell>
        <mxCell id="L8nfCHtJE5OpTZyHgB6r-2" value="" style="sketch=0;outlineConnect=0;fontColor=#232F3E;gradientColor=none;fillColor=#232F3D;strokeColor=none;dashed=0;verticalLabelPosition=bottom;verticalAlign=top;align=center;html=1;fontSize=12;fontStyle=0;aspect=fixed;pointerEvents=1;shape=mxgraph.aws4.servers;container=0;" parent="Cs1iZEAPSNi9UPlNlivx-41" vertex="1">
          <mxGeometry x="-176" y="70.5" width="78" height="78" as="geometry" />
        </mxCell>
        <mxCell id="L8nfCHtJE5OpTZyHgB6r-3" value="&lt;font style=&quot;font-size: 16px;&quot;&gt;Kubelet&lt;/font&gt;" style="text;html=1;align=center;verticalAlign=middle;whiteSpace=wrap;rounded=0;container=0;" parent="Cs1iZEAPSNi9UPlNlivx-41" vertex="1">
          <mxGeometry x="-167" y="159.5" width="60" height="30" as="geometry" />
        </mxCell>
        <mxCell id="L8nfCHtJE5OpTZyHgB6r-85" value="&lt;font style=&quot;font-size: 16px; font-weight: normal;&quot;&gt;Knative&lt;/font&gt;" style="swimlane;whiteSpace=wrap;html=1;startSize=23;container=0;" parent="Cs1iZEAPSNi9UPlNlivx-41" vertex="1">
          <mxGeometry x="161" y="68.5" width="103" height="121" as="geometry" />
        </mxCell>
        <mxCell id="L8nfCHtJE5OpTZyHgB6r-86" value="&lt;div style=&quot;line-height: 0%;&quot;&gt;&lt;p&gt;&lt;font style=&quot;font-size: 16px;&quot;&gt;feature-&lt;br&gt;&lt;/font&gt;&lt;/p&gt;&lt;p&gt;&lt;font size=&quot;3&quot;&gt;matcher&lt;/font&gt;&lt;/p&gt;&lt;/div&gt;" style="rounded=1;whiteSpace=wrap;html=1;container=0;" parent="L8nfCHtJE5OpTZyHgB6r-85" vertex="1">
          <mxGeometry x="6.5" y="31" width="88.75" height="39" as="geometry" />
        </mxCell>
        <mxCell id="L8nfCHtJE5OpTZyHgB6r-87" value="&lt;font style=&quot;font-size: 16px; line-height: 0%;&quot;&gt;feature-extractor&lt;/font&gt;" style="rounded=1;whiteSpace=wrap;html=1;container=0;" parent="L8nfCHtJE5OpTZyHgB6r-85" vertex="1">
          <mxGeometry x="6.5" y="79" width="90" height="40" as="geometry" />
        </mxCell>
        <mxCell id="L8nfCHtJE5OpTZyHgB6r-82" value="" style="shape=image;verticalLabelPosition=bottom;labelBackgroundColor=default;verticalAlign=top;aspect=fixed;imageAspect=0;image=data:image/png,iVBORw0KGgoAAAANSUhEUgAAAGQAAABkCAYAAABw4pVUAAAAAXNSR0IArs4c6QAACdZJREFUeAHtnWfILTUax//23rB3UVCx9w5+sYEFxYLYOxbUDxZ0RdfFiqgoFhQRe0GxF+y9fbBh772LbdVdXV11fphc5p13ksnMZM6dc04ClzlvJnlqkkmekiv1r8wmaSVJW0o6SNJpki6TdJukxyW9KukzSd+af/+V9Kf5x29bTxva0oe+wAAWMIG9oiRwpZKTwOKSdjKCul3Se5L+yAnYCrqrJ7jelQRulAUt0DQ2ZSlJB2aj80ZJnwxQ8HUVCm03GFqheaTKmpLOkPR6jxVQpTBoh4c1hlUzi2RLzwmS3hxiJbiU9Iak4yUtPAzKWU/SdZL+N4KKKCoIHuEVnntX1pV0xxgooagU+/f9ktbpg1aYtowSS9i4P6+VtNDUUsz+kr5Pypg0GJHJfoNUyhxpVkxSQtnKcI0kZNVpWUDSC2lWBCkEJT0nCZl1UgDMlq9sNKQ6t1w4w8wfWyMzSHokKaPxYHxC0owxlXJyUkZjZdjV41+xFLKkpLxF1SJIT/cyVSab/0haIoZS0GwZglRXXy7/jKGQtKuqL3jXYGXX1br8kGZItBUCWbYu6TQeb4Z811obkp5PMyTaDHk2hkJOTAqJphD8KK0LWzW2bK4PVaoPk83PMf31aesbJnTf4MSDGq1gOnkozZLGq8RjsU0naHY+E+fkGwXp3eSZRGwYsuukzCPp6TRTgmcKu6rolt6iZmeRdElSSqVSruwqMnL7okbM33ubsM20TE1cpghl3dMhsx0c9bWqf89iaQ9w9FhQEiNhkOGffR0AyOAKj4eQiE1k2bpYAVzo2SkQnXjnGC9j8O6KasQxdVFONtEUgmKw/K7sgUhsEs79X3MEWIWO2hMe4dUXj7WKpBcLsvCIL+xVUZC/SDopi3Wd1dOdpewfI7pNZht7rCR4dBXSHE5xDExXn+D6okLs3x9K2sezjFkEjBJC/V8qjBQLZxie0H6qJHjxFZanfTO5fOTh1dc/6F2VwFDMoZLYDleVxUwQGRF+H3iIrsLZ9XtoYzlCuItWMWVWi8MqFGFpDgDnb2IBVT2/MMsUQg8tRMmzrWZ63yLp7Syy/P8DVBS4wAluaIAWaAot8HpclpX1ZQ2aQ2E721UpovgeJh8we/EmkXvMtBUkbWG220S8XGqE9mgmtJclMStt6hpWVEsDv209bWhLHwQODGCxhQc2OGZ2cu1+AU97SXqw4eBxQw58Y5lt8kRABGPvPiz5FA6ZMGvgAV7yA6CJTBwowqubIHX1eUXSuVmI5daS5gwnYeAt58o8pdsYWtlVufhpUt+aGba5TRBX9bEJlzdl8AmP2S479S8taZrWFIcDABc4wY1n9GaTBNqV5YH4ttblrY4U4lLYT1k27GvmO4QpgnX/EDNiN8wSg7AKLGcEiVkbCzSC5R+/qUPItKEtfRjtwODDDUy+ceAAl4uOLupJ8Wtd8sf+LogcJ5gXtNaGpLWT8TDKLGIZXCuGQoBx9YCn9ijOGpbKaIV1mVsWRlFQg+CJ2yLmjaYNA4i7Qb5JSqk9KJEZh9BOCoA/TkoJVgoX4FQZJFsrisC5p5JSKpVC1lQnF9lMX6JC6tjTj8ONDXW/MciEs5NLbiXirFfFDQ0u0zqHr/vSbJkyWzBkctdXWZkp87ZilWhdGCFPeszSnJA5CY9zlDyJOMgAWZQVjJN2mS97X6vOTtnPM8Vs6ulpFcO9H13ZgiwtfXjCI7z6FIG4Nsvu3cJXZGn2iDDslQXEEyIwpcxd0ZWl7CxJn+YIycMZ5t9cbnampGUrZIBdjYDC4uCs6Fb9ukx4X5nb1so+XHmI00raOItVIoSozy7bMh7zddAOD/ACT76CTLjX8WvHYPT1DXqXJ6z4+/3MQ4cvOfQyyeUlHW4upazj9izi7fpvaOPiTGiF5pAyu2lfNfBCYHnbhDDPaZTQIF9oTBmSZSTtZq7Puztz+6LgEHyx2rCcgBPcXOEHLdBUp8AzRwBcxyF01YFd2jYEiW3DHvyuzO61hyS8bk0KI42t41aSDjYhRFzxeqsk8izwOtbxqdOHvvlrYoENDnA1KfBG/C6KrHsWa4JvQh8r7LpPPI0IYhdPvOsERD3/g8t34AWe2nhRW7NZVxGu9lg8LzazJ8oVE6058wNgKdrR+NXJ8yjullx8VtX7sQa87SpO9x0z2ogI3DX7iK7eMCwngAVvE0KBwA0N0MIMYPBUCbbJe2TZunRFXBlDhOujKNb967PzzjnZ8nCMmVWbGx851lN85lyKw14/fybiN3W8o82qpg99+a4BC5jABge4wFlGSxd14GtdLh8gwV0IoU8wCdZrXTgM9YmpYaZlo9baMAA4JA2zIPpAexRLr1UoQcUYF/vA2DDSgE2vThC3lbv3ye3Vgw4sG0bhF2lGZoRSdVIA7DKaFQlJf/8dFLJBJ5rIAcXYNszZUIMaKOQWVpnoc2IN/1nmBcOlS1hkrNProIQ0CDzkx5znOOSWyTJcE6blVQ6HPa8JZn4mfeynbHZwY6/vkPB0xmHleB1ezagi0CF/Is73BhFm63G+9ZrbqzE8upxXyA4rOLJsXew0JxePGeEqKAairDPf9hvlJ8EfO2e+IHh3FQKsMZlYObjaBddbQDx/M46oqty81YzLcxR3ZLivzw+ISERGGCuRWV6GwYJ3NcwDs78JvA65SAX/MoY9bDjDfLDkYEfAAhEkvtlgZYjZ3uX9tG0aP60Syp5ctcH3gxvnqgo7DKyvRxtPW6jLswxv13W4pFnzjwyYCZZvZEBiaPEqjSKttn3jZxFg2d/cXHBEzUROFMSZhhTjs7Pdyb2Bifdl+NvU4Q6+x4QtYaInhKnO9hR37lE1gtAbK8J2rMPsjyZ1eFvHPtzC9D3JzsXnQaYueYGnS8IFgIGzrk8d/zt97H+9CixgAhscTTOB+T6QKIpfpa45ycd70Ls6Csm35VptzjBE9jW5QCCIuAE2ggd4gad/Fz7Ueb6rfrcmuQpByHu8cuR741Pngxc9m6g1l5MBoIBNzAwltSCWK3syppo1bSIsXMrCvICC+P9myQ9HSYTlRP1faAL5BCe4+Y+JoQWaSJmGRhf9TeuHLk+dGCdO/A+bRFM+9nww2b0Q6M3BlAvU8JcTueLyqfOONrSlD9tVYAALmCSxggNcxXNCU2GH9Et56h2M8hDBu9qkPPUeKQTLeMpT75FCUp56j5SR8tR7pIyUp94jZaQ89R4po7M89bLzFWb1lKdefnD05amXyTJqXcpTn6gUX556VMH7gGGqxuiW8tTrme19Mo3yziom5alHEWdcIClPPa48o0Ebxzz1aMIbBKBRzlMfhPw6xzEKeeqdC2lqIxiGPPWpLaOEP0kgSSBJIEkgSWCSBP4CPLVwrHMITlEAAAAASUVORK5CYII=;container=0;" parent="Cs1iZEAPSNi9UPlNlivx-41" vertex="1">
          <mxGeometry x="80" y="70" width="70" height="70" as="geometry" />
        </mxCell>
        <mxCell id="L8nfCHtJE5OpTZyHgB6r-6" value="&lt;font style=&quot;font-size: 16px; line-height: 0%;&quot;&gt;NFS Server&lt;/font&gt;" style="text;html=1;align=center;verticalAlign=middle;whiteSpace=wrap;rounded=0;container=0;" parent="Cs1iZEAPSNi9UPlNlivx-41" vertex="1">
          <mxGeometry x="84.5" y="159" width="60" height="30" as="geometry" />
        </mxCell>
        <mxCell id="L8nfCHtJE5OpTZyHgB6r-9" value="" style="sketch=0;outlineConnect=0;fontColor=#232F3E;gradientColor=none;fillColor=#232F3D;strokeColor=none;dashed=0;verticalLabelPosition=bottom;verticalAlign=top;align=center;html=1;fontSize=12;fontStyle=0;aspect=fixed;pointerEvents=1;shape=mxgraph.aws4.traditional_server;container=0;" parent="Cs1iZEAPSNi9UPlNlivx-41" vertex="1">
          <mxGeometry x="-77" y="70.5" width="45" height="78" as="geometry" />
        </mxCell>
        <mxCell id="L8nfCHtJE5OpTZyHgB6r-10" value="&lt;font style=&quot;font-size: 16px; line-height: 0%;&quot;&gt;Kafka Server&lt;/font&gt;" style="text;html=1;align=center;verticalAlign=middle;whiteSpace=wrap;rounded=0;container=0;" parent="Cs1iZEAPSNi9UPlNlivx-41" vertex="1">
          <mxGeometry x="-84.5" y="160.5" width="60" height="30" as="geometry" />
        </mxCell>
        <mxCell id="L8nfCHtJE5OpTZyHgB6r-83" value="" style="sketch=0;outlineConnect=0;fontColor=#232F3E;gradientColor=none;fillColor=#232F3D;strokeColor=none;dashed=0;verticalLabelPosition=bottom;verticalAlign=top;align=center;html=1;fontSize=12;fontStyle=0;aspect=fixed;pointerEvents=1;shape=mxgraph.aws4.traditional_server;container=0;" parent="Cs1iZEAPSNi9UPlNlivx-41" vertex="1">
          <mxGeometry x="-77" y="70.5" width="45" height="78" as="geometry" />
        </mxCell>
        <mxCell id="Cs1iZEAPSNi9UPlNlivx-46" value="" style="sketch=0;outlineConnect=0;fontColor=#232F3E;gradientColor=none;fillColor=#232F3D;strokeColor=none;dashed=0;verticalLabelPosition=bottom;verticalAlign=top;align=center;html=1;fontSize=12;fontStyle=0;aspect=fixed;pointerEvents=1;shape=mxgraph.aws4.gear;" vertex="1" parent="Cs1iZEAPSNi9UPlNlivx-41">
          <mxGeometry x="-9" y="70.5" width="78" height="78" as="geometry" />
        </mxCell>
        <mxCell id="Cs1iZEAPSNi9UPlNlivx-47" value="&lt;font style=&quot;font-size: 16px;&quot;&gt;Scheduler&lt;/font&gt;" style="text;html=1;align=center;verticalAlign=middle;whiteSpace=wrap;rounded=0;container=0;" vertex="1" parent="Cs1iZEAPSNi9UPlNlivx-41">
          <mxGeometry y="159.5" width="60" height="30" as="geometry" />
        </mxCell>
        <mxCell id="Cs1iZEAPSNi9UPlNlivx-3" value="" style="endArrow=none;dashed=1;html=1;dashPattern=1 3;strokeWidth=2;rounded=0;fontSize=12;startSize=8;endSize=8;curved=1;" edge="1" parent="Cs1iZEAPSNi9UPlNlivx-41">
          <mxGeometry width="50" height="50" relative="1" as="geometry">
            <mxPoint x="-410" y="400" as="sourcePoint" />
            <mxPoint x="310" y="400" as="targetPoint" />
          </mxGeometry>
        </mxCell>
        <mxCell id="Cs1iZEAPSNi9UPlNlivx-56" value="" style="group" vertex="1" connectable="0" parent="1">
          <mxGeometry x="-1650" y="1150" width="240" height="150" as="geometry" />
        </mxCell>
        <mxCell id="Cs1iZEAPSNi9UPlNlivx-37" value="" style="rounded=0;whiteSpace=wrap;html=1;dashed=1;" vertex="1" parent="Cs1iZEAPSNi9UPlNlivx-56">
          <mxGeometry width="240" height="150" as="geometry" />
        </mxCell>
        <mxCell id="L8nfCHtJE5OpTZyHgB6r-119" value="&lt;font style=&quot;font-size: 16px;&quot;&gt;Knative&lt;/font&gt;" style="swimlane;whiteSpace=wrap;html=1;startSize=23;" parent="Cs1iZEAPSNi9UPlNlivx-56" vertex="1">
          <mxGeometry x="110" y="5" width="120" height="135" as="geometry" />
        </mxCell>
        <mxCell id="L8nfCHtJE5OpTZyHgB6r-120" value="&lt;font style=&quot;font-size: 16px;&quot;&gt;front-end&lt;/font&gt;" style="rounded=1;whiteSpace=wrap;html=1;" parent="L8nfCHtJE5OpTZyHgB6r-119" vertex="1">
          <mxGeometry x="5" y="29" width="110" height="30" as="geometry" />
        </mxCell>
        <mxCell id="L8nfCHtJE5OpTZyHgB6r-121" value="&lt;font style=&quot;font-size: 16px;&quot;&gt;move-detector&lt;/font&gt;" style="rounded=1;whiteSpace=wrap;html=1;" parent="L8nfCHtJE5OpTZyHgB6r-119" vertex="1">
          <mxGeometry x="5" y="64" width="110" height="30" as="geometry" />
        </mxCell>
        <mxCell id="L8nfCHtJE5OpTZyHgB6r-122" value="&lt;font style=&quot;font-size: 16px;&quot;&gt;target-detector&lt;/font&gt;" style="rounded=1;whiteSpace=wrap;html=1;" parent="L8nfCHtJE5OpTZyHgB6r-119" vertex="1">
          <mxGeometry x="5" y="99" width="110" height="30" as="geometry" />
        </mxCell>
        <mxCell id="Cs1iZEAPSNi9UPlNlivx-49" value="&lt;font style=&quot;font-size: 16px;&quot;&gt;Kubelet&lt;/font&gt;" style="rounded=0;whiteSpace=wrap;html=1;" vertex="1" parent="Cs1iZEAPSNi9UPlNlivx-56">
          <mxGeometry x="10" y="5" width="90" height="35" as="geometry" />
        </mxCell>
        <mxCell id="Cs1iZEAPSNi9UPlNlivx-50" value="&lt;font style=&quot;font-size: 16px; line-height: 20%;&quot;&gt;Kafka Server&lt;/font&gt;" style="rounded=0;whiteSpace=wrap;html=1;" vertex="1" parent="Cs1iZEAPSNi9UPlNlivx-56">
          <mxGeometry x="10" y="55" width="90" height="35" as="geometry" />
        </mxCell>
        <mxCell id="Cs1iZEAPSNi9UPlNlivx-51" value="&lt;font style=&quot;font-size: 16px;&quot;&gt;NFS Client&lt;/font&gt;" style="rounded=0;whiteSpace=wrap;html=1;" vertex="1" parent="Cs1iZEAPSNi9UPlNlivx-56">
          <mxGeometry x="10" y="105" width="90" height="35" as="geometry" />
        </mxCell>
      </root>
    </mxGraphModel>
  </diagram>
</mxfile>
